<?xml version="1.0" encoding="utf-8"?>
<svg version="1.1" xmlns:xlink="http://www.w3.org/1999/xlink" width="12px" height="12px" xmlns="http://www.w3.org/2000/svg">
  <g transform="matrix(1 0 0 1 -23 -31 )">
    <path d="M 11.4027464111328 5.75003000488281  C 11.4097415100151 2.72013315321067  8.97007047383945 0.252548255545964  5.94029011230469 0.225074194335938  C 5.92362890090459 0.224923110400068  5.90696709012989 0.22484756726749  5.89030519372898 0.22484756726749  C 2.84585986151374 0.22484756726749  0.377849285525855 2.69285814325537  0.377849285525855 5.73730347547062  C 0.377849285525855 8.78174880768586  2.84585986151374 11.2497593836737  5.89030519372898 11.2497593836737  C 8.92978169000413 11.2497593836737  11.3957292145018 8.78949840089559  11.4027464111328 5.75003000488281  Z M 3.99030571289063 5.75003000488281  L 4.01530551757812 1.47506420898437  C 4.01530551757812 1.30247659998072  4.15521541834009 1.16256669921875  4.32780302734375 1.16256669921875  L 7.54027731933594 1.16256669921875  C 7.71486887677122 1.16928668451119  7.85290410651436 1.31284332430678  7.85277482910156 1.48756411132812  L 7.85277482910156 5.72503020019531  L 7.29027932128906 5.72503020019531  L 7.29027932128906 5.57503139648437  L 6.70278400878906 4.16254270019531  C 6.58276744434874 3.83096908193273  6.26791624069193 3.61009102704779  5.91529031982422 3.61009102704779  C 5.56266439895651 3.61009102704779  5.2478131952997 3.83096908193273  5.12779663085938 4.16254270019531  L 4.56530112304688 5.75003000488281  L 3.99030571289063 5.75003000488281  Z M 9.09026491699219 6.70002238769531  L 9.01526552734375 6.75002199707031  L 7.29027932128906 8.02501179199219  L 7.9027744140625 10.0499956054687  C 7.91760269919049 10.1291458865769  7.8890002935273 10.2101860437149  7.82777502441406 10.2624938964844  C 7.79104776186385 10.2732579348116  7.75200319028459 10.2732579348116  7.71527592773437 10.2624938964844  L 7.60277683105469 10.2624938964844  L 5.86529072265625 9.01250390625  L 4.10280480957031 10.1999944091797  L 3.96530590820313 10.1999944091797  C 3.89578166636157 10.1537610101471  3.86520490869336 10.0671268451725  3.89030651855469 9.98749609375  L 4.51530151367187 7.97501220703125  L 2.82781501464844 6.72502219238281  C 2.78707270348358 6.66004807318916  2.78707270348358 6.57749802056084  2.82781501464844 6.51252390136719  C 2.85780931507588 6.43903032111873  2.92431016756948 6.38677965329037  3.00281362304687 6.375025  L 5.02779741210937 6.375025  L 5.09029692382812 6.18752648925781  L 5.74029172363281 4.37504099121094  C 5.76655793776516 4.30073763306931  5.83648457512114 4.25079003077697  5.91529030761719 4.2500419921875  C 5.99754929724511 4.24918207684293  6.07194450885283 4.29877888135242  6.10278881835938 4.37504099121094  L 6.71528391113281 6.17502661132812  L 6.79028332519531 6.36252509765625  L 8.91526630859375 6.36252509765625  C 9.00075678665348 6.3549528314375  9.07739574079816 6.41516915026006  9.09026491699219 6.50002399902344  C 9.12878830909106 6.56112488972309  9.12878830909106 6.63892149699566  9.09026491699219 6.70002238769531  Z " fill-rule="nonzero" fill="#ffffff" stroke="none" transform="matrix(1 0 0 1 23 31 )" />
  </g>
</svg>