<?xml version="1.0" encoding="utf-8"?>
<svg version="1.1" xmlns:xlink="http://www.w3.org/1999/xlink" width="23px" height="25px" xmlns="http://www.w3.org/2000/svg">
  <g transform="matrix(1 0 0 1 -17 -28 )">
    <path d="M 22 24.1874059357317  L 22 0.812593487099221  C 22.1652083289888 0.812561434144132  22.1652083308855 0.812529381166707  22.1652083308855 0.812497328211393  C 22.1652083308855 0.363769565948375  21.8014425976488 0  21.3527148250262 0  C 21.3485480040847 0  21.344381244789 3.58950208702841E-05  21.3402149169922 0  L 1.61537272949219 0  C 1.39449466185776 0.00392214639661738  1.18378162101894 0.0935872654794411  1.02787741699219 0.250097992272922  C 0.876710079292154 0.403426782344918  0.791477440026547 0.609779490549549  1 0.825093389154389  L 1 24.1499062539803  C 0.790124718309132 24.158270618358  0.789997394715235 24.1666383724315  0.789997394715235 24.1750066108433  C 0.789997394715235 24.6306378783858  1.15935952485684 25  1.61499080291836 25  C 1.61928493406965 25  1.62357899977969 24.9999664732559  1.62787260742188 25  L 21.3527148193359 25  C 21.5718388040392 24.9994197059207  21.782312112832 24.9143347566164  21.9402101318359 24.7624013326132  C 22.091377469536 24.6090725425412  22.1766101088016 24.4027198343365  22 24.1874059357317  Z M 16.8277510253906 21.5874267965381  L 16.8902505126953 21.5874267965381  L 6.89033051757812 21.5874267965381  C 6.46310134944524 21.5312288485893  6.14290128728474 21.1683354552701  6.1403365234375 20.7374336276851  C 6.11898609157618 20.3000532668461  6.45325316415362 19.9267883701353  6.89033051757813 19.8999403364732  L 16.8152511230469 19.8999403364732  C 17.2902473144531 19.8999403364732  17.5652451171875 20.2124378390243  17.5652451171875 20.7374336276851  C 17.5669770971242 20.7586987348496  17.5678441602128 20.780025444873  17.5678441602128 20.8013609677651  C 17.5678441602128 21.2178728728125  17.243507736162 21.5623562465626  16.8277510253906 21.5874267965381  Z M 16.8277510253906 18.1999539743532  L 16.8902505126953 18.1999539743532  L 6.89033051757812 18.1999539743532  C 6.46310134944524 18.1437560264044  6.14290128728474 17.7808626330852  6.1403365234375 17.3499608055002  C 6.11898609157618 16.9125804446613  6.45325316415362 16.5393155479504  6.89033051757813 16.5124675142884  L 16.8152511230469 16.5124675142884  C 17.2902473144531 16.5124675142884  17.5652451171875 16.8249650168394  17.5652451171875 17.3499608055002  C 17.5669770971242 17.3712259126647  17.5678441602128 17.3925526226882  17.5678441602128 17.4138881455803  C 17.5678441602128 17.8304000506277  17.243507736162 18.1748834243777  16.8277510253906 18.1999539743532  Z M 18.4902377197266 8.75002980287294  C 18.4767324515142 9.61053903978769  18.2941007057346 10.4599889972673  17.9527420166016 11.2500097500393  C 17.6198338767451 12.0298149372083  17.1403280143732 12.7384651797546  16.5402533203125 13.3374930026273  C 15.9367391936907 13.9316462038254  15.2235288062918 14.4028744810669  14.4402701171875 14.7249818621963  C 12.808954906583 15.4083268265357  10.9716261236904 15.4083268265357  9.34031091308594 14.7249818621963  C 8.55993386137576 14.3875314087426  7.85135810574049 13.9038330005402  7.25282761230469 13.2999932964618  C 6.66400083440159 12.7112615588132  6.19306382021371 12.0154627410135  5.86533872070313 11.2500097500393  C 5.17346513309873 9.62041939958567  5.17346513309873 7.77964101413294  5.86533872070312 6.1500506636793  C 6.19456535787786 5.34436752313362  6.68843952623233 4.6163288934201  7.31532712402344 4.01256780287061  C 9.21419147717365 2.11564863949571  12.080947709941 1.57503199642126  14.5402693115234 2.65007874741201  C 15.320333963339 2.97574132630567  16.026229185079 3.45626035079711  16.6152527099609 4.06256741109128  C 17.2127919632243 4.66108838700612  17.6882750970807 5.3700676772668  18.0152415283203 6.1500506636793  C 18.3462680625396 6.97610472698585  18.5078020701128 7.86029086902065  18.4902377197266 8.75002980287294  Z " fill-rule="nonzero" fill="#ffffff" stroke="none" transform="matrix(1 0 0 1 17 28 )" />
  </g>
</svg>