<?xml version="1.0" encoding="utf-8"?>
<svg version="1.1" xmlns:xlink="http://www.w3.org/1999/xlink" width="130px" height="23px" xmlns="http://www.w3.org/2000/svg">
  <defs>
    <mask fill="white" id="clip565">
      <path d="M 0 23  L 0 0  L 56.3987999571408 0  L 130 0  L 130 23  L 78.1281474338369 23  L 0 23  Z " fill-rule="evenodd" />
    </mask>
  </defs>
  <g transform="matrix(1 0 0 1 -103 -176 )">
    <path d="M 0 23  L 0 0  L 56.3987999571408 0  L 130 0  L 130 23  L 78.1281474338369 23  L 0 23  Z " fill-rule="nonzero" fill="#ffffff" stroke="none" transform="matrix(1 0 0 1 103 176 )" />
    <path d="M 0 23  L 0 0  L 56.3987999571408 0  L 130 0  L 130 23  L 78.1281474338369 23  L 0 23  Z " stroke-width="2" stroke="#797979" fill="none" transform="matrix(1 0 0 1 103 176 )" mask="url(#clip565)" />
  </g>
</svg>