<?xml version="1.0" encoding="utf-8"?>
<svg version="1.1" xmlns:xlink="http://www.w3.org/1999/xlink" width="25px" height="17px" xmlns="http://www.w3.org/2000/svg">
  <g transform="matrix(1 0 0 1 -788 -762 )">
    <path d="M 18.9453125 15.438125  C 19.1356169871795 15.3035416666667  19.2307692307692 15.1441666666667  19.2307692307692 14.96  C 19.2307692307692 14.7758333333333  19.1356169871795 14.6164583333333  18.9453125 14.481875  C 18.7550080128205 14.3472916666667  18.5296474358974 14.28  18.2692307692308 14.28  C 18.0088141025641 14.28  17.783453525641 14.3472916666667  17.5931490384615 14.481875  C 17.4028445512821 14.6164583333333  17.3076923076923 14.7758333333333  17.3076923076923 14.96  C 17.3076923076923 15.1441666666667  17.4028445512821 15.3035416666667  17.5931490384615 15.438125  C 17.783453525641 15.5727083333333  18.0088141025641 15.64  18.2692307692308 15.64  C 18.5296474358974 15.64  18.7550080128205 15.5727083333333  18.9453125 15.438125  Z M 22.7914663461538 15.438125  C 22.9817708333333 15.3035416666667  23.0769230769231 15.1441666666667  23.0769230769231 14.96  C 23.0769230769231 14.7758333333333  22.9817708333333 14.6164583333333  22.7914663461538 14.481875  C 22.6011618589744 14.3472916666667  22.3758012820513 14.28  22.1153846153846 14.28  C 21.8549679487179 14.28  21.6296073717949 14.3472916666667  21.4393028846154 14.481875  C 21.2489983974359 14.6164583333333  21.1538461538462 14.7758333333333  21.1538461538462 14.96  C 21.1538461538462 15.1441666666667  21.2489983974359 15.3035416666667  21.4393028846154 15.438125  C 21.6296073717949 15.5727083333333  21.8549679487179 15.64  22.1153846153846 15.64  C 22.3758012820513 15.64  22.6011618589744 15.5727083333333  22.7914663461538 15.438125  Z M 24.5793269230769 11.8575  C 24.8597756410256 12.0558333333333  25 12.2966666666667  25 12.58  L 25 15.98  C 25 16.2633333333333  24.8597756410256 16.5041666666667  24.5793269230769 16.7025  C 24.2988782051282 16.9008333333333  23.9583333333333 17  23.5576923076923 17  L 1.44230769230769 17  C 1.04166666666667 17  0.701121794871795 16.9008333333333  0.420673076923077 16.7025  C 0.140224358974359 16.5041666666667  0 16.2633333333333  0 15.98  L 0 12.58  C 0 12.2966666666667  0.140224358974359 12.0558333333333  0.420673076923077 11.8575  C 0.701121794871795 11.6591666666667  1.04166666666667 11.56  1.44230769230769 11.56  L 7.85757211538462 11.56  C 8.06790865384615 11.9566666666667  8.42097355769231 12.2825  8.91676682692308 12.5375  C 9.41256009615385 12.7925  9.96594551282051 12.92  10.5769230769231 12.92  L 14.4230769230769 12.92  C 15.0340544871795 12.92  15.5874399038462 12.7925  16.0832331730769 12.5375  C 16.5790264423077 12.2825  16.9320913461538 11.9566666666667  17.1424278846154 11.56  L 23.5576923076923 11.56  C 23.9583333333333 11.56  24.2988782051282 11.6591666666667  24.5793269230769 11.8575  Z M 19.9068509615385 4.961875  C 20.2173477564103 5.174375  20.2874599358974 5.41875  20.1171875 5.695  C 19.9469150641026 5.97833333333333  19.6514423076923 6.12  19.2307692307692 6.12  L 15.3846153846154 6.12  L 15.3846153846154 10.88  C 15.3846153846154 11.0641666666667  15.2894631410256 11.2235416666667  15.0991586538462 11.358125  C 14.9088541666667 11.4927083333333  14.6834935897436 11.56  14.4230769230769 11.56  L 10.5769230769231 11.56  C 10.3165064102564 11.56  10.0911458333333 11.4927083333333  9.90084134615385 11.358125  C 9.71053685897436 11.2235416666667  9.61538461538462 11.0641666666667  9.61538461538462 10.88  L 9.61538461538462 6.12  L 5.76923076923077 6.12  C 5.34855769230769 6.12  5.05308493589744 5.97833333333333  4.8828125 5.695  C 4.71254006410256 5.41875  4.78265224358974 5.174375  5.09314903846154 4.961875  L 11.8239182692308 0.201874999999999  C 12.0042067307692 0.0672916666666659  12.2295673076923 0  12.5 0  C 12.7704326923077 0  12.9957932692308 0.0672916666666659  13.1760817307692 0.201874999999999  L 19.9068509615385 4.961875  Z " fill-rule="nonzero" fill="#81d3f8" stroke="none" transform="matrix(1 0 0 1 788 762 )" />
  </g>
</svg>