<?xml version="1.0" encoding="utf-8"?>
<svg version="1.1" xmlns:xlink="http://www.w3.org/1999/xlink" width="133px" height="23px" xmlns="http://www.w3.org/2000/svg">
  <defs>
    <mask fill="white" id="clip571">
      <path d="M 0 23  L 0 0  L 57.7003107253825 0  L 133 0  L 133 23  L 79.9311046823101 23  L 0 23  Z " fill-rule="evenodd" />
    </mask>
  </defs>
  <g transform="matrix(1 0 0 1 -107 -274 )">
    <path d="M 0 23  L 0 0  L 57.7003107253825 0  L 133 0  L 133 23  L 79.9311046823101 23  L 0 23  Z " fill-rule="nonzero" fill="#ffffff" stroke="none" transform="matrix(1 0 0 1 107 274 )" />
    <path d="M 0 23  L 0 0  L 57.7003107253825 0  L 133 0  L 133 23  L 79.9311046823101 23  L 0 23  Z " stroke-width="2" stroke="#797979" fill="none" transform="matrix(1 0 0 1 107 274 )" mask="url(#clip571)" />
  </g>
</svg>