<?xml version="1.0" encoding="utf-8"?>
<svg version="1.1" xmlns:xlink="http://www.w3.org/1999/xlink" width="12px" height="12px" viewBox="82 326  12 12" xmlns="http://www.w3.org/2000/svg">
  <path d="M 88 326  C 91.36 326  94 328.64  94 332  C 94 335.36  91.36 338  88 338  C 84.64 338  82 335.36  82 332  C 82 328.64  84.64 326  88 326  Z " fill-rule="nonzero" fill="#f0f0f0" stroke="none" />
  <path d="M 88 326.5  C 91.08 326.5  93.5 328.92  93.5 332  C 93.5 335.08  91.08 337.5  88 337.5  C 84.92 337.5  82.5 335.08  82.5 332  C 82.5 328.92  84.92 326.5  88 326.5  Z " stroke-width="1" stroke="#797979" fill="none" />
  <path d="M 88 335  C 86.32 335  85 333.68  85 332  C 85 330.32  86.32 329  88 329  C 89.68 329  91 330.32  91 332  C 91 333.68  89.68 335  88 335  " fill-rule="nonzero" fill="#797979" stroke="none" />
</svg>