<svg t="1718095331400" class="icon" viewBox="0 0 1194 1024" version="1.1" xmlns="http://www.w3.org/2000/svg" p-id="2553" width="200" height="200"><path d="M296.009246 638.991721l-0.597309-0.511979 401.050291-366.491702c31.742704-33.79062 83.025943-73.469 148.985916-73.639659h0.426649c41.128987 0 68.09322 15.444703 73.127681 18.601907l0.597309 0.341319c27.134892 17.492619 60.925512 48.467354 67.83723 96.25207 9.556943 65.874643-37.203814 120.912396-42.664925 126.970815l-1.194617 1.365278-511.381786 480.833699C360.518612 989.86806 288.41489 1024 217.676445 1024a212.471324 212.471324 0 0 1-152.39911-64.594696c-57.426988-56.915009-67.069261-116.219254-65.021345-155.982964 2.303906-45.566139 21.332462-91.046949 52.051207-124.922899C200.525145 515.17811 683.91874 87.931556 704.397904 70.012288l1.450607-1.194618c100.006583-80.636707 194.808045-75.943566 256.842846-57.768308 60.072214 17.663279 100.689222 51.453899 108.539568 58.280287 76.796864 61.437491 118.096511 129.87203 122.874982 203.2557 6.826388 103.249117-63.144088 176.120808-66.045303 179.192683l-0.853298 0.853299-519.829441 499.862256a42.323605 42.323605 0 0 1-31.401384 13.652775 40.446348 40.446348 0 0 1-41.470307-39.25173c0-11.09288 4.778472-21.076473 12.543488-28.15885l-0.08533-0.08533 520.34142-500.544895c4.266492-4.607812 48.808674-55.123082 44.030202-121.424375-3.669184-51.11258-35.411887-100.859882-94.374813-147.876628l-2.047917-1.706597A218.359084 218.359084 0 0 0 935.385805 85.371661C875.484251 68.73234 816.435996 83.153085 760.288955 128.121915c-21.503122 19.028556-502.422151 444.397854-645.093659 601.575436-27.476211 30.292096-60.584193 105.979672 10.666231 175.950148l1.535938 1.535938 0.767968 0.938628c2.730555 2.986545 32.937322 34.985238 83.793912 37.118484 49.661972 2.218576 104.102416-24.233677 161.870724-78.418131l508.39524-477.932484c8.532985-10.580901 26.878902-39.251731 23.039059-64.850686-2.389236-15.359373-12.628818-28.756159-31.401384-41.128987-7.167707-3.839843-54.184454-24.574997-116.304584 42.323605l-1.109288 1.194618-1.194618 1.109288L360.945261 687.800395a42.238275 42.238275 0 0 1-33.107981 15.615362 40.446348 40.446348 0 0 1-41.470307-39.25173c0-9.556943 3.583854-18.345918 9.642273-25.172306z" fill="#1296db" p-id="2554"></path></svg>