<svg t="1718095461518" class="icon" viewBox="0 0 1097 1024" version="1.1" xmlns="http://www.w3.org/2000/svg" p-id="4708" width="200" height="200"><path d="M547.564437 744.691288c-39.218317 0-78.436634 0-117.6854 0-29.535534 0-49.662325-17.020993-54.838656-46.312935-1.126613-6.333393-1.461552-12.697235-1.461552-19.121974 0.030449-90.494439 0.030449-180.988879 0.030449-271.483318 0-11.875112 0-11.875112-12.301398-11.875112-5.389474 0-10.778947 0.121796-16.137972-0.060898-6.42474-0.213143-9.956824-3.623431-10.139518-10.109069-0.152245-5.633066-0.152245-11.266131-0.030449-16.929646 0.152245-8.525721 3.075349-11.479274 11.692417-11.509723 27.678145-0.091347 55.386738-0.243592 83.064883 0.121796 6.333393 0.091347 9.46964-1.735593 11.722866-7.825394 5.084984-13.671603 11.022539-27.038715 16.777401-40.436277 8.343027-19.487362 23.384835-29.383289 44.394648-29.596432 30.235861-0.274041 60.502171-0.30449 90.738032 0 21.344752 0.213143 36.447458 10.322212 44.729587 30.235861 5.693964 13.702052 11.661968 27.343205 17.081891 41.167053 1.857389 4.780494 4.262861 6.516087 9.530538 6.455189 27.678145-0.30449 55.386738-0.152245 83.064883-0.121796 10.6876 0 13.245317 2.527267 13.336664 13.001725 0.030449 4.871841 0.121796 9.743681-0.030449 14.615522-0.243592 7.490455-3.379839 10.718049-10.839845 10.961641-6.668332 0.182694-13.367113 0.517633-19.974547-0.091347-6.637883-0.60898-7.916741 1.887838-7.886292 8.099435 0.213143 87.936723 0.152245 175.873446 0.121796 263.810169 0 11.509723 0.456735 23.049896-2.527267 34.376925-7.490455 28.469819-25.577163 42.659054-54.777758 42.659054C626.00107 744.691288 586.782753 744.691288 547.564437 744.691288zM683.854178 542.723045c0-46.373833-0.091347-92.778115 0.121796-139.151948 0.030449-5.785311-1.126613-7.855843-7.490455-7.855843-85.59215 0.213143-171.1843 0.213143-256.77645 0-6.302944-0.030449-7.520904 2.009634-7.520904 7.825394 0.152245 91.986441 0.121796 184.00333 0.091347 275.989771 0 5.693964 0.730776 11.174784 2.74041 16.564258 2.496818 6.72923 6.363842 9.835028 14.250134 9.804579 77.888552-0.30449 155.807553-0.182694 233.696105-0.182694 14.341481 0 17.72132-2.74041 20.126792-16.990544 0.639429-3.745227 0.700327-7.6427 0.700327-11.479274C683.854178 632.395361 683.854178 587.543979 683.854178 542.723045zM548.08207 357.227713c20.49218 0 41.014808-0.152245 61.506988 0.091347 5.419923 0.060898 6.089801-1.400654 3.958371-6.12025-3.775676-8.403925-7.277312-16.960095-10.504906-25.577163-1.887838-4.993637-4.810943-7.307761-10.291763-7.277312-29.718228 0.121796-59.466905 0.121796-89.185132 0-5.054535-0.030449-8.129884 1.979185-9.987273 6.637883-3.410288 8.55617-6.820577 17.142789-10.718049 25.485816-2.496818 5.328576-1.674695 6.942373 4.445555 6.851026C507.584894 357.045019 527.833482 357.227713 548.08207 357.227713z" opacity="0.54" p-id="4709"></path><path d="M528.777401 550.548439c0-27.678145-0.030449-55.356289 0-83.034434 0-11.083437 2.375022-13.336664 13.641154-13.397562 4.5978-0.030449 9.226048-0.091347 13.823848 0.030449 8.099435 0.213143 11.052988 3.105798 11.083437 11.266131 0.091347 22.806304 0.030449 45.612608 0.030449 68.418912 0 33.31121 0 66.62242 0 99.933631 0 11.327029-2.679512 13.976093-14.036991 14.06744-24.572346 0.213143-24.572346 0.213143-24.572346-24.267856C528.777401 599.236396 528.777401 574.877193 528.777401 550.548439z" opacity="0.54" p-id="4710"></path><path d="M490.107166 551.12697c0 27.434552 0.030449 54.838656 0 82.273208 0 11.661968-2.801308 14.37193-14.585073 14.432828-3.836574 0.030449-7.703598 0.060898-11.540172 0-9.77413-0.182694-12.605888-3.075349-12.666786-13.062623-0.091347-11.022539-0.030449-22.045079-0.030449-33.067618 0-44.33375 0-88.667499 0-133.001249 0-12.727684 1.918287-14.524175 14.828665-14.554624 3.836574 0 7.703598-0.030449 11.540172 0 9.378293 0.121796 12.423194 3.014451 12.423194 12.453643C490.168064 494.765864 490.107166 522.961641 490.107166 551.12697z" opacity="0.54" p-id="4711"></path><path d="M644.879453 551.370562c0 27.678145 0.030449 55.356289-0.030449 83.034434-0.030449 10.504906-2.831757 13.275766-13.093072 13.428011-3.836574 0.060898-7.703598 0.030449-11.540172 0-11.266131-0.091347-14.158787-2.892655-14.158787-14.06744-0.030449-38.426643 0-76.883735 0-115.310378 0-17.173238-0.060898-34.346476 0.030449-51.519715 0.060898-9.926375 2.923104-12.697235 12.84948-12.788582 4.354208-0.030449 8.708415-0.030449 13.062623 0 10.261314 0.091347 12.819031 2.496818 12.84948 12.666786C644.909902 494.979007 644.879453 523.174784 644.879453 551.370562z" opacity="0.54" p-id="4712"></path><path d="M548.08207 824.10229c-172.09777 0-312.10229-140.00452-312.10229-312.10229S375.9843 199.89771 548.08207 199.89771s312.10229 140.00452 312.10229 312.10229S720.179839 824.10229 548.08207 824.10229zM548.08207 215.122212c-163.693845 0-296.877788 133.183943-296.877788 296.877788s133.183943 296.877788 296.877788 296.877788 296.877788-133.183943 296.877788-296.877788S711.775914 215.122212 548.08207 215.122212z" opacity="0.26" p-id="4713"></path></svg>