<?xml version="1.0" encoding="utf-8"?>
<svg version="1.1" xmlns:xlink="http://www.w3.org/1999/xlink" width="142px" height="23px" xmlns="http://www.w3.org/2000/svg">
  <defs>
    <mask fill="white" id="clip576">
      <path d="M 0 23  L 0 0  L 61.6048430301077 0  L 142 0  L 142 23  L 85.3399764277296 23  L 0 23  Z " fill-rule="evenodd" />
    </mask>
  </defs>
  <g transform="matrix(1 0 0 1 -114 -192 )">
    <path d="M 0 23  L 0 0  L 61.6048430301077 0  L 142 0  L 142 23  L 85.3399764277296 23  L 0 23  Z " fill-rule="nonzero" fill="#d7d7d7" stroke="none" transform="matrix(1 0 0 1 114 192 )" />
    <path d="M 0 23  L 0 0  L 61.6048430301077 0  L 142 0  L 142 23  L 85.3399764277296 23  L 0 23  Z " stroke-width="2" stroke="#797979" fill="none" transform="matrix(1 0 0 1 114 192 )" mask="url(#clip576)" />
  </g>
</svg>