<svg t="1717387015264" class="icon" viewBox="0 0 1024 1024" version="1.1" xmlns="http://www.w3.org/2000/svg" p-id="6058" width="200" height="200"><path d="M512 0A512 512 0 1 1 0 512 512 512 0 0 1 512 0z m0 773.024a50.208 50.208 0 1 0-50.24-50.208A50.144 50.144 0 0 0 512 772.992z m-30.08-522.048a18.88 18.88 0 0 0-19.2 20.096l15.36 331.104a10.88 10.88 0 0 0 10.56 10.208h46.72a10.88 10.88 0 0 0 10.56-10.208l15.36-331.104a18.912 18.912 0 0 0-19.2-20.096h-60.16z" fill="#FBAD14" p-id="6059"></path></svg>