<svg t="1715659108434" class="icon" viewBox="0 0 1024 1024" version="1.1" xmlns="http://www.w3.org/2000/svg" p-id="6149" width="200" height="200"><path d="M974.464 0H46.4C20.736 0 0 28.608 0 64v64c0 35.392 20.736 64 46.4 64h928.064c25.6 0 46.4-28.608 46.4-64V64c0-35.392-20.736-64-46.4-64z m-4.8 384H366.4C340.736 384 320 412.608 320 448v64c0 35.392 20.736 64 46.4 64h603.2c25.6 0 46.336-28.608 46.336-64V448c0.128-35.392-20.608-64-46.272-64z m4.8 398.208H46.4c-25.664 0-46.4 28.608-46.4 64v64c0 35.392 20.736 64 46.4 64h928.064c25.6 0 46.4-28.608 46.4-64v-64c0-35.392-20.736-64-46.4-64zM208.832 595.968V378.24c0-27.008-35.84-40.64-56.704-21.504l-119.104 108.8a28.48 28.48 0 0 0 0 43.008l119.104 108.8c20.864 19.008 56.704 5.568 56.704-21.44z" fill="#13227a" p-id="6150"></path></svg>