<svg t="1715659336936" class="icon" viewBox="0 0 1024 1024" version="1.1" xmlns="http://www.w3.org/2000/svg" p-id="9266" width="200" height="200"><path d="M1018.948887 432.407273L823.13216 144.942545a29.556364 29.556364 0 0 0-24.669091-12.846545H224.929978a29.556364 29.556364 0 0 0-24.669091 12.846545L4.44416 432.593455a25.506909 25.506909 0 0 0 4.189091 33.512727l482.583273 441.809454a29.975273 29.975273 0 0 0 40.913454 0l482.629818-441.809454a25.506909 25.506909 0 0 0 4.189091-33.512727z m-321.163636-69.026909H325.654342a27.927273 27.927273 0 0 1 0-55.854546h372.130909a27.927273 27.927273 0 0 1 0 55.854546z m0 0" fill="#13227a" p-id="9267"></path></svg>