<?xml version="1.0" encoding="utf-8"?>
<svg version="1.1" xmlns:xlink="http://www.w3.org/1999/xlink" width="168px" height="20px" xmlns="http://www.w3.org/2000/svg">
  <defs>
    <mask fill="white" id="clip559">
      <path d="M 0 20  L 0 0  L 50 0  L 99.3333333333321 0  L 168 0  L 168 20  L 82.6666666666679 20  L 0 20  Z " fill-rule="evenodd" />
    </mask>
  </defs>
  <g transform="matrix(1 0 0 1 -79 -849 )">
    <path d="M 0 20  L 0 0  L 50 0  L 99.3333333333321 0  L 168 0  L 168 20  L 82.6666666666679 20  L 0 20  Z " fill-rule="nonzero" fill="#d7d7d7" stroke="none" transform="matrix(1 0 0 1 79 849 )" />
    <path d="M 0 20  L 0 0  L 50 0  L 99.3333333333321 0  L 168 0  L 168 20  L 82.6666666666679 20  L 0 20  Z " stroke-width="2" stroke="#797979" fill="none" transform="matrix(1 0 0 1 79 849 )" mask="url(#clip559)" />
  </g>
</svg>