<?xml version="1.0" encoding="utf-8"?>
<svg version="1.1" xmlns:xlink="http://www.w3.org/1999/xlink" width="414px" height="54px" xmlns="http://www.w3.org/2000/svg">
  <defs>
    <mask fill="white" id="clip563">
      <path d="M 0 54  L 0 0  L 179.608486017356 0  L 414 0  L 414 54  L 248.808100289296 54  L 0 54  Z " fill-rule="evenodd" />
    </mask>
  </defs>
  <g transform="matrix(1 0 0 1 -66 -760 )">
    <path d="M 0 54  L 0 0  L 179.608486017356 0  L 414 0  L 414 54  L 248.808100289296 54  L 0 54  Z " fill-rule="nonzero" fill="#ffffff" stroke="none" transform="matrix(1 0 0 1 66 760 )" />
    <path d="M 0 54  L 0 0  L 179.608486017356 0  L 414 0  L 414 54  L 248.808100289296 54  L 0 54  Z " stroke-width="2" stroke="#797979" fill="none" transform="matrix(1 0 0 1 66 760 )" mask="url(#clip563)" />
  </g>
</svg>