<?xml version="1.0" encoding="utf-8"?>
<svg version="1.1" xmlns:xlink="http://www.w3.org/1999/xlink" width="153px" height="23px" xmlns="http://www.w3.org/2000/svg">
  <defs>
    <mask fill="white" id="clip564">
      <path d="M 0 23  L 0 0  L 66.3770491803273 0  L 153 0  L 153 23  L 91.9508196721312 23  L 0 23  Z " fill-rule="evenodd" />
    </mask>
  </defs>
  <g transform="matrix(1 0 0 1 -80 -137 )">
    <path d="M 0 23  L 0 0  L 66.3770491803273 0  L 153 0  L 153 23  L 91.9508196721312 23  L 0 23  Z " fill-rule="nonzero" fill="#d7d7d7" stroke="none" transform="matrix(1 0 0 1 80 137 )" />
    <path d="M 0 23  L 0 0  L 66.3770491803273 0  L 153 0  L 153 23  L 91.9508196721312 23  L 0 23  Z " stroke-width="2" stroke="#797979" fill="none" transform="matrix(1 0 0 1 80 137 )" mask="url(#clip564)" />
  </g>
</svg>