<?xml version="1.0" encoding="utf-8"?>
<svg version="1.1" xmlns:xlink="http://www.w3.org/1999/xlink" width="16px" height="15px" xmlns="http://www.w3.org/2000/svg">
  <g transform="matrix(1 0 0 1 -464 -180 )">
    <path d="M 14.5625 1.875  L 12.7021484375 1.875  C 12.7021484375 1.0986328125  12.072265625 0.46875  11.2958984375 0.46875  L 11.0615234375 0.46875  C 10.28515625 0.46875  9.6552734375 1.0986328125  9.6552734375 1.875  L 6.359375 1.875  C 6.359375 1.0986328125  5.7294921875 0.46875  4.953125 0.46875  L 4.71875 0.46875  C 3.9423828125 0.46875  3.3125 1.0986328125  3.3125 1.875  L 1.4375 1.875  C 0.92041015625 1.875  0.5 2.29541015625  0.5 2.8125  L 0.5 13.59375  C 0.5 14.11083984375  0.92041015625 14.53125  1.4375 14.53125  L 14.5625 14.53125  C 15.07958984375 14.53125  15.5 14.11083984375  15.5 13.59375  L 15.5 2.8125  C 15.5 2.29541015625  15.07958984375 1.875  14.5625 1.875  Z M 10.5927734375 1.9921875  C 10.5927734375 1.66845703125  10.85498046875 1.40625  11.1787109375 1.40625  C 11.50244140625 1.40625  11.7646484375 1.66845703125  11.7646484375 1.9921875  L 11.7646484375 3.1640625  C 11.7646484375 3.48779296875  11.50244140625 3.75  11.1787109375 3.75  C 10.85498046875 3.75  10.5927734375 3.48779296875  10.5927734375 3.1640625  L 10.5927734375 1.9921875  Z M 4.25 1.9921875  C 4.25 1.66845703125  4.51220703125 1.40625  4.8359375 1.40625  C 5.15966796875 1.40625  5.421875 1.66845703125  5.421875 1.9921875  L 5.421875 3.1640625  C 5.421875 3.48779296875  5.15966796875 3.75  4.8359375 3.75  C 4.51220703125 3.75  4.25 3.48779296875  4.25 3.1640625  L 4.25 1.9921875  Z M 14.5625 13.125  C 14.5625 13.38427734375  14.35302734375 13.59375  14.09375 13.59375  L 1.90625 13.59375  C 1.64697265625 13.59375  1.4375 13.38427734375  1.4375 13.125  L 1.4375 6.5625  L 14.5625 6.5625  L 14.5625 13.125  Z M 14.5625 3.28125  L 14.5625 5.625  L 1.4375 5.625  L 1.4375 3.28125  C 1.4375 3.02197265625  1.64697265625 2.8125  1.90625 2.8125  L 3.3125 2.8125  L 3.3125 3.28125  C 3.3125 4.0576171875  3.9423828125 4.6875  4.71875 4.6875  L 4.953125 4.6875  C 5.7294921875 4.6875  6.359375 4.0576171875  6.359375 3.28125  L 6.359375 2.8125  L 9.6552734375 2.8125  L 9.6552734375 3.1640625  C 9.6552734375 4.0048828125  10.337890625 4.6875  11.1787109375 4.6875  C 12.01953125 4.6875  12.7021484375 4.0048828125  12.7021484375 3.1640625  L 12.7021484375 2.8125  L 14.09375 2.8125  C 14.35302734375 2.8125  14.5625 3.02197265625  14.5625 3.28125  Z " fill-rule="nonzero" fill="#000000" stroke="none" transform="matrix(1 0 0 1 464 180 )" />
  </g>
</svg>