<?xml version="1.0" encoding="utf-8"?>
<svg version="1.1" xmlns:xlink="http://www.w3.org/1999/xlink" width="14px" height="17px" xmlns="http://www.w3.org/2000/svg">
  <g transform="matrix(1 0 0 1 -976 -140 )">
    <path d="M 13.863103515625 16.0469208984375  L 13.87216796875 16.0580107421875  L 9.6831875 10.97130859375  C 10.518396049985 9.77119558373531  10.9766268959699 8.25070661106962  10.9766268959699 6.67945361363311  C 10.9766268959699 3.00715158851651  8.52498890378652 0.0301625980081071  5.50074017721991 0.0301625980081071  C 2.4764914506533 0.0301625980081071  0.0248534584699117 3.00715158851651  0.0248534584699117 6.67945361363311  C 0.0248534584699117 10.3517556387497  2.4764914506533 13.3287446292581  5.50074017721991 13.3287446292581  C 6.79471323393233 13.3287446292581  8.04688062318643 12.7723214591335  9.035208984375 11.7581396484375  L 13.215125 16.833751953125  C 13.3010522937027 16.9380922383355  13.4175947136801 16.9967100001989  13.5391142578125 16.9967100001989  C 13.792165608697 16.9967100001989  13.9973042602741 16.747613066141  13.9973042602741 16.4403364257813  C 13.9973042602741 16.2927769793347  13.9490308093278 16.151261183648  13.863103515625 16.0469208984375  Z M 5.494125 12.2446440017902  C 4.27739731287317 12.2446440017902  3.11105512709312 11.6546012200983  2.254232421875 10.605609375  C 1.40653810069415 9.5677932379632  0.930890625000001 8.16528828545646  0.930890625000001 6.7035736892902  C 0.930890625000001 3.6433250579563  2.97392024478385 1.1625033767902  5.494125 1.1625033767902  C 8.01432975521615 1.1625033767902  10.057359375 3.6433250579563  10.057359375 6.7035736892902  C 10.057359375 8.16528828545646  9.58171189930585 9.5677932379632  8.734017578125 10.605609375  C 7.87719487290688 11.6546012200983  6.71085268712683 12.2446440017902  5.494125 12.2446440017902  Z " fill-rule="nonzero" fill="#666666" stroke="none" transform="matrix(1 0 0 1 976 140 )" />
  </g>
</svg>