<?xml version="1.0" encoding="utf-8"?>
<svg version="1.1" xmlns:xlink="http://www.w3.org/1999/xlink" width="16px" height="17px" xmlns="http://www.w3.org/2000/svg">
  <g transform="matrix(1 0 0 1 -721 -179 )">
    <path d="M 15.843546875 16.0469208984375  L 15.85390625 16.0580107421875  L 11.0665 10.97130859375  C 12.0210240571257 9.77119558373531  12.544716452537 8.25070661106962  12.544716452537 6.67945361363311  C 12.544716452537 3.00715158851651  9.74284446147031 0.0301625980081071  6.28656020253704 0.0301625980081071  C 2.83027594360377 0.0301625980081071  0.0284039525370419 3.00715158851651  0.0284039525370419 6.67945361363311  C 0.0284039525370419 10.3517556387497  2.83027594360377 13.3287446292581  6.28656020253704 13.3287446292581  C 7.76538655306552 13.3287446292581  9.19643499792735 12.7723214591335  10.325953125 11.7581396484375  L 15.103 16.833751953125  C 15.2012026213746 16.9380922383355  15.3343939584915 16.9967100001989  15.4732734375 16.9967100001989  C 15.762474981368 16.9967100001989  15.996919154599 16.747613066141  15.996919154599 16.4403364257813  C 15.996919154599 16.2927769793347  15.9417494963746 16.151261183648  15.843546875 16.0469208984375  Z M 6.279 12.2446440017902  C 4.88845407185505 12.2446440017902  3.5554915738207 11.6546012200983  2.576265625 10.605609375  C 1.60747211507903 9.5677932379632  1.063875 8.16528828545646  1.063875 6.7035736892902  C 1.063875 3.6433250579563  3.39876599403868 1.1625033767902  6.279 1.1625033767902  C 9.15923400596132 1.1625033767902  11.494125 3.6433250579563  11.494125 6.7035736892902  C 11.494125 8.16528828545646  10.950527884921 9.5677932379632  9.981734375 10.605609375  C 9.0025084261793 11.6546012200983  7.66954592814495 12.2446440017902  6.279 12.2446440017902  Z " fill-rule="nonzero" fill="#666666" stroke="none" transform="matrix(1 0 0 1 721 179 )" />
  </g>
</svg>