<?xml version="1.0" encoding="utf-8"?>
<svg version="1.1" xmlns:xlink="http://www.w3.org/1999/xlink" width="135px" height="23px" xmlns="http://www.w3.org/2000/svg">
  <defs>
    <mask fill="white" id="clip566">
      <path d="M 0 23  L 0 0  L 58.567984570877 0  L 135 0  L 135 23  L 81.1330761812922 23  L 0 23  Z " fill-rule="evenodd" />
    </mask>
  </defs>
  <g transform="matrix(1 0 0 1 -103 -215 )">
    <path d="M 0 23  L 0 0  L 58.567984570877 0  L 135 0  L 135 23  L 81.1330761812922 23  L 0 23  Z " fill-rule="nonzero" fill="#d7d7d7" stroke="none" transform="matrix(1 0 0 1 103 215 )" />
    <path d="M 0 23  L 0 0  L 58.567984570877 0  L 135 0  L 135 23  L 81.1330761812922 23  L 0 23  Z " stroke-width="2" stroke="#797979" fill="none" transform="matrix(1 0 0 1 103 215 )" mask="url(#clip566)" />
  </g>
</svg>