<?xml version="1.0" encoding="utf-8"?>
<svg version="1.1" xmlns:xlink="http://www.w3.org/1999/xlink" width="123px" height="23px" xmlns="http://www.w3.org/2000/svg">
  <defs>
    <mask fill="white" id="clip567">
      <path d="M 0 23  L 0 0  L 53.3619414979102 0  L 123 0  L 123 23  L 73.9212471873996 23  L 0 23  Z " fill-rule="evenodd" />
    </mask>
  </defs>
  <g transform="matrix(1 0 0 1 -109 -712 )">
    <path d="M 0 23  L 0 0  L 53.3619414979102 0  L 123 0  L 123 23  L 73.9212471873996 23  L 0 23  Z " fill-rule="nonzero" fill="#ffffff" stroke="none" transform="matrix(1 0 0 1 109 712 )" />
    <path d="M 0 23  L 0 0  L 53.3619414979102 0  L 123 0  L 123 23  L 73.9212471873996 23  L 0 23  Z " stroke-width="2" stroke="#797979" fill="none" transform="matrix(1 0 0 1 109 712 )" mask="url(#clip567)" />
  </g>
</svg>