<?xml version="1.0" encoding="utf-8"?>
<svg version="1.1" xmlns:xlink="http://www.w3.org/1999/xlink" width="18px" height="15px" xmlns="http://www.w3.org/2000/svg">
  <g transform="matrix(1 0 0 1 -337 -134 )">
    <path d="M 16.3828125 1.875  L 14.2899169921875 1.875  C 14.2899169921875 1.0986328125  13.581298828125 0.46875  12.7078857421875 0.46875  L 12.4442138671875 0.46875  C 11.57080078125 0.46875  10.8621826171875 1.0986328125  10.8621826171875 1.875  L 7.154296875 1.875  C 7.154296875 1.0986328125  6.4456787109375 0.46875  5.572265625 0.46875  L 5.30859375 0.46875  C 4.4351806640625 0.46875  3.7265625 1.0986328125  3.7265625 1.875  L 1.6171875 1.875  C 1.03546142578125 1.875  0.5625 2.29541015625  0.5625 2.8125  L 0.5625 13.59375  C 0.5625 14.11083984375  1.03546142578125 14.53125  1.6171875 14.53125  L 16.3828125 14.53125  C 16.9645385742188 14.53125  17.4375 14.11083984375  17.4375 13.59375  L 17.4375 2.8125  C 17.4375 2.29541015625  16.9645385742188 1.875  16.3828125 1.875  Z M 11.9168701171875 1.9921875  C 11.9168701171875 1.66845703125  12.2118530273438 1.40625  12.5760498046875 1.40625  C 12.9402465820313 1.40625  13.2352294921875 1.66845703125  13.2352294921875 1.9921875  L 13.2352294921875 3.1640625  C 13.2352294921875 3.48779296875  12.9402465820313 3.75  12.5760498046875 3.75  C 12.2118530273438 3.75  11.9168701171875 3.48779296875  11.9168701171875 3.1640625  L 11.9168701171875 1.9921875  Z M 4.78125 1.9921875  C 4.78125 1.66845703125  5.07623291015625 1.40625  5.4404296875 1.40625  C 5.80462646484375 1.40625  6.099609375 1.66845703125  6.099609375 1.9921875  L 6.099609375 3.1640625  C 6.099609375 3.48779296875  5.80462646484375 3.75  5.4404296875 3.75  C 5.07623291015625 3.75  4.78125 3.48779296875  4.78125 3.1640625  L 4.78125 1.9921875  Z M 16.3828125 13.125  C 16.3828125 13.38427734375  16.1471557617188 13.59375  15.85546875 13.59375  L 2.14453125 13.59375  C 1.85284423828125 13.59375  1.6171875 13.38427734375  1.6171875 13.125  L 1.6171875 6.5625  L 16.3828125 6.5625  L 16.3828125 13.125  Z M 16.3828125 3.28125  L 16.3828125 5.625  L 1.6171875 5.625  L 1.6171875 3.28125  C 1.6171875 3.02197265625  1.85284423828125 2.8125  2.14453125 2.8125  L 3.7265625 2.8125  L 3.7265625 3.28125  C 3.7265625 4.0576171875  4.4351806640625 4.6875  5.30859375 4.6875  L 5.572265625 4.6875  C 6.4456787109375 4.6875  7.154296875 4.0576171875  7.154296875 3.28125  L 7.154296875 2.8125  L 10.8621826171875 2.8125  L 10.8621826171875 3.1640625  C 10.8621826171875 4.0048828125  11.630126953125 4.6875  12.5760498046875 4.6875  C 13.52197265625 4.6875  14.2899169921875 4.0048828125  14.2899169921875 3.1640625  L 14.2899169921875 2.8125  L 15.85546875 2.8125  C 16.1471557617188 2.8125  16.3828125 3.02197265625  16.3828125 3.28125  Z " fill-rule="nonzero" fill="#000000" stroke="none" transform="matrix(1 0 0 1 337 134 )" />
  </g>
</svg>