<svg t="1718179212652" class="icon" viewBox="0 0 1024 1024" version="1.1" xmlns="http://www.w3.org/2000/svg" p-id="5768" width="200" height="200"><path d="M846.76608 117.59616H211.39456c-50.50368 0-91.46368 40.96-91.46368 91.50464v594.65728c0 50.50368 40.96 91.46368 91.46368 91.46368h635.37152c50.54464 0 91.50464-40.96 91.50464-91.46368V209.1008c0-50.54464-40.96-91.50464-91.50464-91.50464z" fill="#E1F1FD" p-id="5769"></path><path d="M748.42112 300.60544l-73.19552-63.61088a23.7568 23.7568 0 0 0-33.83296 2.74432l-333.0048 382.89408a32.44032 32.44032 0 0 0-6.38976 13.27104l-22.44608 114.81088a11.8784 11.8784 0 0 0 15.5648 13.7216l110.71488-38.42048c4.75136-1.6384 9.0112-4.5056 12.32896-8.23296l332.55424-383.34464a23.7568 23.7568 0 0 0-2.29376-33.83296zM611.20512 823.41888c-21.504 0-35.2256-5.03808-42.06592-16.46592-11.4688-18.30912 0-45.75232 14.62272-70.90176 8.192-14.17216 13.9264-29.65504 16.91648-45.75232-21.504-5.48864-134.47168 41.1648-228.72064 91.46368a10.52672 10.52672 0 0 1-13.7216-4.54656 10.52672 10.52672 0 0 1 4.58752-13.7216c65.41312-32.9728 221.3888-106.57792 252.02688-87.8592a16.91648 16.91648 0 0 1 8.23296 15.11424 137.216 137.216 0 0 1-19.21024 54.43584c-9.58464 18.75968-21.01248 42.51648-15.5648 51.2 5.5296 8.72448 11.4688 6.88128 24.73984 6.88128 76.84096 0 196.1984-118.90688 197.59104-119.84896a10.07616 10.07616 0 0 1 14.17216 14.21312c-6.84032 5.48864-128.53248 125.7472-213.6064 125.7472z" fill="#0092DF" p-id="5770"></path></svg>