<?xml version="1.0" encoding="utf-8"?>
<svg version="1.1" xmlns:xlink="http://www.w3.org/1999/xlink" width="132px" height="23px" xmlns="http://www.w3.org/2000/svg">
  <defs>
    <mask fill="white" id="clip570">
      <path d="M 0 23  L 0 0  L 57.2664738026353 0  L 132 0  L 132 23  L 79.330118932819 23  L 0 23  Z " fill-rule="evenodd" />
    </mask>
  </defs>
  <g transform="matrix(1 0 0 1 -108 -232 )">
    <path d="M 0 23  L 0 0  L 57.2664738026353 0  L 132 0  L 132 23  L 79.330118932819 23  L 0 23  Z " fill-rule="nonzero" fill="#ffffff" stroke="none" transform="matrix(1 0 0 1 108 232 )" />
    <path d="M 0 23  L 0 0  L 57.2664738026353 0  L 132 0  L 132 23  L 79.330118932819 23  L 0 23  Z " stroke-width="2" stroke="#797979" fill="none" transform="matrix(1 0 0 1 108 232 )" mask="url(#clip570)" />
  </g>
</svg>