<?xml version="1.0" encoding="utf-8"?>
<svg version="1.1" xmlns:xlink="http://www.w3.org/1999/xlink" width="12px" height="12px" viewBox="398 325  12 12" xmlns="http://www.w3.org/2000/svg">
  <path d="M 404 325  C 407.36 325  410 327.64  410 331  C 410 334.36  407.36 337  404 337  C 400.64 337  398 334.36  398 331  C 398 327.64  400.64 325  404 325  Z " fill-rule="nonzero" fill="#ffffff" stroke="none" />
  <path d="M 404 325.5  C 407.08 325.5  409.5 327.92  409.5 331  C 409.5 334.08  407.08 336.5  404 336.5  C 400.92 336.5  398.5 334.08  398.5 331  C 398.5 327.92  400.92 325.5  404 325.5  Z " stroke-width="1" stroke="#797979" fill="none" />
  <path d="M 404 334  C 402.32 334  401 332.68  401 331  C 401 329.32  402.32 328  404 328  C 405.68 328  407 329.32  407 331  C 407 332.68  405.68 334  404 334  " fill-rule="nonzero" fill="#797979" stroke="none" />
</svg>