<?xml version="1.0" encoding="utf-8"?>
<svg version="1.1" xmlns:xlink="http://www.w3.org/1999/xlink" width="12px" height="12px" viewBox="647 325  12 12" xmlns="http://www.w3.org/2000/svg">
  <path d="M 653 325  C 656.36 325  659 327.64  659 331  C 659 334.36  656.36 337  653 337  C 649.64 337  647 334.36  647 331  C 647 327.64  649.64 325  653 325  Z " fill-rule="nonzero" fill="#70b603" stroke="none" fill-opacity="0" />
  <path d="M 653 325.5  C 656.08 325.5  658.5 327.92  658.5 331  C 658.5 334.08  656.08 336.5  653 336.5  C 649.92 336.5  647.5 334.08  647.5 331  C 647.5 327.92  649.92 325.5  653 325.5  Z " stroke-width="1" stroke="#797979" fill="none" />
  <path d="M 653 334  C 651.32 334  650 332.68  650 331  C 650 329.32  651.32 328  653 328  C 654.68 328  656 329.32  656 331  C 656 332.68  654.68 334  653 334  " fill-rule="nonzero" fill="#797979" stroke="none" />
</svg>