<svg t="1717558947180" class="icon" viewBox="0 0 1024 1024" version="1.1" xmlns="http://www.w3.org/2000/svg" p-id="7040" width="200" height="200"><path d="M403.748571 538.331429l29.257143 32.182857 64.365715-61.44-4.388572 198.948571 43.885714 1.462857 4.388572-200.411428 61.44 64.365714 32.182857-30.72-114.102857-117.028571z" fill="#5182e4" p-id="7041"></path><path d="M841.142857 232.594286H462.262857c-2.925714 0-4.388571 0-7.314286-1.462857l-77.531428-36.571429c-8.777143-4.388571-17.554286-5.851429-26.331429-5.851429h-140.434285c-33.645714 0-61.44 27.794286-61.44 61.44v479.817143c0 33.645714 27.794286 61.44 61.44 61.44h630.491428c33.645714 0 61.44-27.794286 61.44-61.44V294.034286c0-33.645714-27.794286-61.44-61.44-61.44z m-629.028571 0H351.085714c2.925714 0 4.388571 0 7.314286 1.462857l77.531429 36.571428c8.777143 4.388571 17.554286 5.851429 26.331428 5.851429h378.88c10.24 0 17.554286 7.314286 17.554286 17.554286v48.274285H194.56v-92.16c0-10.24 7.314286-17.554286 17.554286-17.554285z m629.028571 514.925714h-629.028571c-10.24 0-17.554286-7.314286-17.554286-17.554286V386.194286h664.137143v343.771428c0 8.777143-7.314286 17.554286-17.554286 17.554286z" fill="#a0c2e3" p-id="7042"></path></svg>