<?xml version="1.0" encoding="utf-8"?>
<svg version="1.1" xmlns:xlink="http://www.w3.org/1999/xlink" width="399px" height="23px" xmlns="http://www.w3.org/2000/svg">
  <defs>
    <mask fill="white" id="clip573">
      <path d="M 0 23  L 0 0  L 173.100932176148 0  L 399 0  L 399 23  L 239.79331404693 23  L 0 23  Z " fill-rule="evenodd" />
    </mask>
  </defs>
  <g transform="matrix(1 0 0 1 -353 -192 )">
    <path d="M 0 23  L 0 0  L 173.100932176148 0  L 399 0  L 399 23  L 239.79331404693 23  L 0 23  Z " fill-rule="nonzero" fill="#d7d7d7" stroke="none" transform="matrix(1 0 0 1 353 192 )" />
    <path d="M 0 23  L 0 0  L 173.100932176148 0  L 399 0  L 399 23  L 239.79331404693 23  L 0 23  Z " stroke-width="2" stroke="#797979" fill="none" transform="matrix(1 0 0 1 353 192 )" mask="url(#clip573)" />
  </g>
</svg>