<?xml version="1.0" encoding="utf-8"?>
<svg version="1.1" xmlns:xlink="http://www.w3.org/1999/xlink" width="183px" height="23px" xmlns="http://www.w3.org/2000/svg">
  <defs>
    <mask fill="white" id="clip577">
      <path d="M 0 23  L 0 0  L 79.3921568627444 0  L 183 0  L 183 23  L 109.980392156863 23  L 0 23  Z " fill-rule="evenodd" />
    </mask>
  </defs>
  <g transform="matrix(1 0 0 1 -133 -113 )">
    <path d="M 0 23  L 0 0  L 79.3921568627444 0  L 183 0  L 183 23  L 109.980392156863 23  L 0 23  Z " fill-rule="nonzero" fill="#ffffff" stroke="none" transform="matrix(1 0 0 1 133 113 )" />
    <path d="M 0 23  L 0 0  L 79.3921568627444 0  L 183 0  L 183 23  L 109.980392156863 23  L 0 23  Z " stroke-width="2" stroke="#797979" fill="none" transform="matrix(1 0 0 1 133 113 )" mask="url(#clip577)" />
  </g>
</svg>