<?xml version="1.0" encoding="utf-8"?>
<svg version="1.1" xmlns:xlink="http://www.w3.org/1999/xlink" width="503px" height="60px" xmlns="http://www.w3.org/2000/svg">
  <defs>
    <mask fill="white" id="clip582">
      <path d="M 0 60  L 0 0  L 218.21997214186 0  L 503 0  L 503 60  L 302.295831994 60  L 0 60  Z " fill-rule="evenodd" />
    </mask>
  </defs>
  <g transform="matrix(1 0 0 1 -129 -380 )">
    <path d="M 0 60  L 0 0  L 218.21997214186 0  L 503 0  L 503 60  L 302.295831994 60  L 0 60  Z " fill-rule="nonzero" fill="#ffffff" stroke="none" transform="matrix(1 0 0 1 129 380 )" />
    <path d="M 0 60  L 0 0  L 218.21997214186 0  L 503 0  L 503 60  L 302.295831994 60  L 0 60  Z " stroke-width="2" stroke="#797979" fill="none" transform="matrix(1 0 0 1 129 380 )" mask="url(#clip582)" />
  </g>
</svg>