<?xml version="1.0" encoding="utf-8"?>
<svg version="1.1" xmlns:xlink="http://www.w3.org/1999/xlink" width="180px" height="23px" xmlns="http://www.w3.org/2000/svg">
  <defs>
    <mask fill="white" id="clip578">
      <path d="M 0 23  L 0 0  L 78.0906460945027 0  L 180 0  L 180 23  L 108.17743490839 23  L 0 23  Z " fill-rule="evenodd" />
    </mask>
  </defs>
  <g transform="matrix(1 0 0 1 -452 -74 )">
    <path d="M 0 23  L 0 0  L 78.0906460945027 0  L 180 0  L 180 23  L 108.17743490839 23  L 0 23  Z " fill-rule="nonzero" fill="#ffffff" stroke="none" transform="matrix(1 0 0 1 452 74 )" />
    <path d="M 0 23  L 0 0  L 78.0906460945027 0  L 180 0  L 180 23  L 108.17743490839 23  L 0 23  Z " stroke-width="2" stroke="#797979" fill="none" transform="matrix(1 0 0 1 452 74 )" mask="url(#clip578)" />
  </g>
</svg>