<?xml version="1.0" encoding="utf-8"?>
<svg version="1.1" xmlns:xlink="http://www.w3.org/1999/xlink" width="184px" height="23px" xmlns="http://www.w3.org/2000/svg">
  <defs>
    <mask fill="white" id="clip583">
      <path d="M 0 23  L 0 0  L 79.8259937854916 0  L 184 0  L 184 23  L 110.581377906354 23  L 0 23  Z " fill-rule="evenodd" />
    </mask>
  </defs>
  <g transform="matrix(1 0 0 1 -128 -467 )">
    <path d="M 0 23  L 0 0  L 79.8259937854916 0  L 184 0  L 184 23  L 110.581377906354 23  L 0 23  Z " fill-rule="nonzero" fill="#ffffff" stroke="none" transform="matrix(1 0 0 1 128 467 )" />
    <path d="M 0 23  L 0 0  L 79.8259937854916 0  L 184 0  L 184 23  L 110.581377906354 23  L 0 23  Z " stroke-width="2" stroke="#797979" fill="none" transform="matrix(1 0 0 1 128 467 )" mask="url(#clip583)" />
  </g>
</svg>